<?xml version="1.0" encoding="utf-8"?>
<!-- Generator: Adobe Illustrator 24.0.1, SVG Export Plug-In . SVG Version: 6.00 Build 0)  -->
<svg version="1.1" id="Livello_1" xmlns="http://www.w3.org/2000/svg" xmlns:xlink="http://www.w3.org/1999/xlink" x="0px" y="0px"
	 viewBox="0 0 246.4 246.4" style="enable-background:new 0 0 246.4 246.4;" xml:space="preserve">
<style type="text/css">
	.st0{fill:#7E8578;}
	.st1{fill:#FFFFFF;}
</style>
<rect class="st0" width="246.4" height="246.4"/>
<g id="amjPzB_1_">
	<g>
		<path class="st1" d="M73,122.8c5.5,0.9,12,2,18.5,2.8c1.9,0.2,4.2-0.3,5.8-1.4c0.8-0.6,1-3.1,0.5-4.4c-1-2.6-3.4-2.8-5.9-2.4
			c-11.9,2.1-23.6,0.6-35.1-2.5c-9.7-2.6-17-10.3-15.7-20.3c1.2-9.2,12-17.4,21.2-16c1.8,0.3,4.3-0.3,5.4-1.5c1-1,1-3.6,0.5-5.2
			c-2.7-8,0.2-17.1,7.3-21.7c7.4-4.7,17.2-3.9,23.1,2.3c6.1,6.3,8.5,14.6,10.9,22.7c1.7,5.9,2.5,12.1,4.1,18.1
			c0.4,1.5,1.8,3.3,3.2,3.8c1.1,0.4,3.5-0.5,4.2-1.6c0.8-1.2,1.1-3.5,0.5-4.8c-5.4-10.9-8-22.5-8.6-34.6c-0.6-13,8.3-21.9,20.2-20.5
			c8.3,1,15,7.3,16.8,15.8c0.8,4,4.2,5.3,7.5,2.8c11.6-8.5,26.7-3.8,30.4,9.8c2.1,7.9-1.4,14.3-7.2,19.1c-6.5,5.3-13.7,10-20.7,14.7
			c-2.4,1.6-5.5,2.2-8,3.8c-1.5,1-2.9,2.8-3.3,4.6c-0.2,1,1.5,3.3,2.6,3.6c1.5,0.3,3.9-0.2,5.1-1.3c8.6-8.5,18.9-14.2,30.1-18.4
			c11.4-4.2,20.7-1.4,26.7,11c3.1,6.3-2.8,18.5-8.5,21.2c-1.9,0.9-4.2,2.9-4.3,4.6c-0.1,1.6,2.1,3.8,3.8,5
			c5.4,3.8,8.1,11.7,6.2,19.4c-1.8,7.3-7.7,12.4-14.8,13.2c-7,0.8-12.9-2.3-18.5-5.5c-8.2-4.7-15.6-10.5-21.7-17.8
			c-1.2-1.4-3.5-2.5-5.4-2.6c-1-0.1-2.7,2.2-3.1,3.7c-0.7,2.7,1.3,4.1,3.5,5.2c12,6.1,21.8,15.1,29.1,25.9
			c7.5,11,0.4,23.3-12.1,26.3c-6.3,1.5-12.5,0.7-17.3-4.7c-3.2-3.6-7.5-2.2-8.8,2.4c-2.9,11-16,16.8-26.1,11.6
			c-8.4-4.3-11.9-11.5-10-20.8c0.9-4.5,1.5-9.2,3.2-13.5c2.3-5.9,5.4-11.6,8.2-17.3c0.5-0.9,1.4-1.7,1.6-2.6c0.3-1.8,0.7-3.9,0-5.3
			c-0.5-1.1-3.1-2.2-4.1-1.8c-1.8,0.7-4,2.4-4.3,4c-1.9,9.7-5.1,18.9-9.9,27.5c-1.6,2.8-3.2,5.6-5.2,8.1c-5.4,6.8-13.9,9.1-21.5,6.1
			c-7.4-2.8-12.5-10.7-11.9-19c0.2-2.2,1.1-4.4,2.1-6.5c1.9-4.2-0.2-7.5-4.9-7.2c-14.1,0.9-24-12.9-18.2-25.8
			c2.8-6.3,8.6-9.1,14.9-10.4C60.6,123.7,66.4,123.5,73,122.8z M126.3,141.4c10,0,18.2-8.2,18.2-18.2s-8.1-18.1-18.2-18.2
			c-8.2-0.1-18.9,7.5-19,18.1C107.1,134,118.2,141.7,126.3,141.4z"/>
	</g>
</g>
</svg>
