<?xml version="1.0" encoding="utf-8"?>
<!-- Generator: Adobe Illustrator 24.0.1, SVG Export Plug-In . SVG Version: 6.00 Build 0)  -->
<svg version="1.1" id="Livello_1" xmlns="http://www.w3.org/2000/svg" xmlns:xlink="http://www.w3.org/1999/xlink" x="0px" y="0px"
	 viewBox="0 0 246.4 246.4" style="enable-background:new 0 0 246.4 246.4;" xml:space="preserve">
<style type="text/css">
	.st0{fill:#7E8578;}
	.st1{fill:#FFFFFF;}
</style>
<rect class="st0" width="246.4" height="246.4"/>
<g>
	<g id="BOXjvX.tif">
		<g>
			<path class="st1" d="M161.4,209.2c-3-0.8-6.1-1.4-9-2.5c-13.1-5.3-21-18.8-19.5-33c1.4-13.7,12-25.2,25.5-27.9
				c17.7-3.5,35,8.5,37.9,26.2c2.9,17.8-9.4,34.6-27.2,36.9c-0.3,0-0.6,0.2-0.9,0.3C165.9,209.2,163.7,209.2,161.4,209.2z
				 M159.4,165.2c-0.1,0.1-0.3,0.1-0.4,0.2c-0.5-0.6-1.1-1.2-1.6-1.8c-2.2-2.3-5.1-2.5-7.1-0.5c-2.1,2-2,4.9,0.2,7.2
				c3.4,3.5,6.8,7.1,10.4,10.5c2.4,2.3,4.6,2.5,7,0.2c3.7-3.6,7.4-7.3,11.1-11c2-2,1.9-4.9,0-6.8c-1.8-1.9-4.7-1.9-6.8-0.1
				c-0.9,0.8-1.8,1.6-2.9,2.6c0-0.8-0.1-1.4-0.1-1.9c0-2.3,0.1-4.6,0-6.9c-0.1-1.1-0.3-2.3-0.8-3.2c-1-1.9-3.3-2.7-5.3-2.2
				c-2,0.5-3.5,2.3-3.5,4.4C159.3,159,159.4,162.1,159.4,165.2z M164.6,196.8C164.6,196.9,164.6,196.9,164.6,196.8
				c3.6,0.1,7.2,0.1,10.7,0.1c3.1,0,5.2-2,5.2-4.7c0-2.8-2.1-4.9-5.2-4.9c-7,0-14.1,0-21.1,0c-0.8,0-1.6,0.1-2.3,0.4
				c-2.1,0.8-3.3,2.9-2.9,5.3c0.3,2.1,2,3.8,4.2,3.9C157,196.9,160.8,196.8,164.6,196.8z"/>
			<path class="st1" d="M136.7,37.2c0,0.8,0,1.5,0,2.2c0,11,0,21.9,0,32.9c0,4.4,1.8,6.2,6.2,6.2c11.6,0,23.3,0,34.9,0
				c0.7,0,1.3,0,2.1,0c0,20,0,39.8,0,59.6c-20.5-6.1-37.4-1.4-50,16.2c-8.9,12.5-11.2,35.8,5.5,52.7c-0.6,0-1.1,0.1-1.5,0.1
				c-21.5-0.1-43.1-0.2-64.6-0.3c-3.7,0-5.6-1.9-5.6-5.6c0-52.9,0-105.7,0-158.6c0-3.4,2-5.6,5.3-5.6c22.2,0,44.4,0,66.7,0
				C135.9,37.2,136.2,37.2,136.7,37.2z M121,97.3c-10.2,0-20.4,0-30.5,0c-4,0-6.3,1.8-6.3,4.9c0,3,2.3,4.8,6.2,4.8
				c20.5,0,40.9,0,61.4,0c0.6,0,1.1,0,1.7,0c2.4-0.3,4.2-2.1,4.4-4.5c0.2-2.9-2-5.1-5.3-5.1C142.1,97.3,131.5,97.3,121,97.3z
				 M121.1,117.4c-10.2,0-20.4,0-30.6,0c-0.7,0-1.3,0-2,0.1c-2.3,0.2-4.1,2.1-4.3,4.5c-0.2,2.3,1.5,4.5,3.7,5
				c0.8,0.2,1.6,0.2,2.3,0.2c20.5,0,41.1,0,61.6,0c0.7,0,1.5,0,2.2-0.2c2-0.4,3.4-1.9,3.7-3.8c0.6-3.2-1.6-5.7-5.2-5.7
				C142.1,117.4,131.6,117.4,121.1,117.4z"/>
			<path class="st1" d="M146.5,68.7c0-9.6,0-19.1,0-29c10.1,9.8,20,19.3,30.1,29C166.4,68.7,156.5,68.7,146.5,68.7z"/>
		</g>
	</g>
	<g id="amjPzB_1_">
		<g>
			<path class="st0" d="M80,63.2c1.3,0.2,2.8,0.5,4.3,0.7c0.4,0,1-0.1,1.4-0.3c0.2-0.1,0.2-0.7,0.1-1c-0.2-0.6-0.8-0.7-1.4-0.6
				c-2.8,0.5-5.5,0.1-8.2-0.6c-2.3-0.6-4-2.4-3.7-4.8c0.3-2.2,2.8-4.1,5-3.7c0.4,0.1,1-0.1,1.3-0.4c0.2-0.2,0.2-0.8,0.1-1.2
				c-0.6-1.9,0-4,1.7-5.1c1.7-1.1,4-0.9,5.4,0.5c1.4,1.5,2,3.4,2.6,5.3c0.4,1.4,0.6,2.8,1,4.2c0.1,0.4,0.4,0.8,0.7,0.9
				c0.3,0.1,0.8-0.1,1-0.4c0.2-0.3,0.3-0.8,0.1-1.1c-1.3-2.6-1.9-5.3-2-8.1c-0.1-3,1.9-5.1,4.7-4.8c1.9,0.2,3.5,1.7,3.9,3.7
				c0.2,0.9,1,1.2,1.8,0.7c2.7-2,6.2-0.9,7.1,2.3c0.5,1.8-0.3,3.3-1.7,4.5c-1.5,1.2-3.2,2.3-4.8,3.4c-0.6,0.4-1.3,0.5-1.9,0.9
				c-0.4,0.2-0.7,0.7-0.8,1.1c0,0.2,0.4,0.8,0.6,0.8c0.4,0.1,0.9,0,1.2-0.3c2-2,4.4-3.3,7-4.3c2.7-1,4.8-0.3,6.2,2.6
				c0.7,1.5-0.7,4.3-2,5c-0.4,0.2-1,0.7-1,1.1c0,0.4,0.5,0.9,0.9,1.2c1.3,0.9,1.9,2.7,1.5,4.5c-0.4,1.7-1.8,2.9-3.5,3.1
				c-1.6,0.2-3-0.5-4.3-1.3c-1.9-1.1-3.7-2.5-5.1-4.2c-0.3-0.3-0.8-0.6-1.3-0.6c-0.2,0-0.6,0.5-0.7,0.9c-0.2,0.6,0.3,1,0.8,1.2
				c2.8,1.4,5.1,3.5,6.8,6.1c1.8,2.6,0.1,5.5-2.8,6.2c-1.5,0.4-2.9,0.2-4-1.1c-0.7-0.8-1.8-0.5-2.1,0.6c-0.7,2.6-3.7,3.9-6.1,2.7
				c-2-1-2.8-2.7-2.3-4.9c0.2-1.1,0.4-2.2,0.7-3.2c0.5-1.4,1.3-2.7,1.9-4c0.1-0.2,0.3-0.4,0.4-0.6c0.1-0.4,0.2-0.9,0-1.2
				c-0.1-0.3-0.7-0.5-1-0.4c-0.4,0.2-0.9,0.6-1,0.9c-0.4,2.3-1.2,4.4-2.3,6.4c-0.4,0.7-0.7,1.3-1.2,1.9c-1.3,1.6-3.3,2.1-5,1.4
				c-1.7-0.7-2.9-2.5-2.8-4.4c0-0.5,0.3-1,0.5-1.5c0.4-1,0-1.8-1.1-1.7c-3.3,0.2-5.6-3-4.3-6c0.7-1.5,2-2.1,3.5-2.4
				C77.1,63.4,78.5,63.4,80,63.2z M92.5,67.5c2.3,0,4.3-1.9,4.3-4.3c0-2.3-1.9-4.2-4.3-4.3c-1.9,0-4.4,1.8-4.4,4.2
				C88,65.8,90.6,67.6,92.5,67.5z"/>
		</g>
	</g>
</g>
</svg>
